<svg width="40" height="40" viewBox="0 0 40 40" fill="none" xmlns="http://www.w3.org/2000/svg">
  <rect width="40" height="40" rx="8" fill="#3B82F6"/>
  <path d="M12 16C12 13.7909 13.7909 12 16 12H24C26.2091 12 28 13.7909 28 16V24C28 26.2091 26.2091 28 24 28H16C13.7909 28 12 26.2091 12 24V16Z" fill="white"/>
  <path d="M16 18C16 16.8954 16.8954 16 18 16H22C23.1046 16 24 16.8954 24 18V22C24 23.1046 23.1046 24 22 24H18C16.8954 24 16 23.1046 16 22V18Z" fill="#3B82F6"/>
  <circle cx="20" cy="20" r="2" fill="white"/>
</svg>
